<svg width="40" height="40" viewBox="0 0 40 40" fill="none" xmlns="http://www.w3.org/2000/svg">
<path d="M34.7665 6.46094H5.23608C4.20044 6.46212 3.20756 6.87404 2.47525 7.60635C1.74294 8.33866 1.33101 9.33155 1.32983 10.3672V29.6328C1.33101 30.6684 1.74294 31.6613 2.47525 32.3936C3.20756 33.126 4.20044 33.5379 5.23608 33.5391H34.7664C35.802 33.5379 36.7949 33.126 37.5272 32.3936C38.2595 31.6613 38.6715 30.6684 38.6726 29.6328V10.3672C38.6715 9.33155 38.2596 8.33865 37.5273 7.60634C36.795 6.87402 35.8021 6.4621 34.7665 6.46094ZM27.8212 19.9947L37.1102 12.7042V29.0119L27.8212 19.9947ZM5.23608 8.02344H34.7664C35.3878 8.02414 35.9835 8.2713 36.4229 8.71068C36.8623 9.15007 37.1094 9.7458 37.1101 10.3672V10.718L22.0781 22.5162C21.5285 22.9453 20.8511 23.1781 20.1539 23.1775C19.4567 23.177 18.7797 22.9431 18.2308 22.5131L2.89233 10.715V10.3672C2.89304 9.7458 3.14019 9.15007 3.57958 8.71068C4.01897 8.2713 4.6147 8.02414 5.23608 8.02344ZM12.4578 20.0437L2.89233 29.0434V12.6862L12.4578 20.0437ZM34.7665 31.9766H5.23608C4.83596 31.9763 4.44255 31.8737 4.09332 31.6784C3.74408 31.4831 3.45064 31.2017 3.24093 30.8609L13.7123 21.0094L17.2734 23.7484C18.097 24.3917 19.1121 24.7411 20.1571 24.7408C21.2022 24.7405 22.2171 24.3907 23.0403 23.747L26.5808 20.9687L36.7656 30.8547C36.5563 31.1972 36.2625 31.4802 35.9125 31.6766C35.5625 31.873 35.1679 31.9763 34.7665 31.9766Z" fill="black"/>
</svg>
