<svg width="32" height="32" viewBox="0 0 32 32" fill="none" xmlns="http://www.w3.org/2000/svg">
<g clip-path="url(#clip0_1941_301)">
<path d="M32.3333 4H5.66667C5.22464 4 4.80072 4.17559 4.48816 4.48816C4.17559 4.80072 4 5.22464 4 5.66667V32.3333C4 32.7754 4.17559 33.1993 4.48816 33.5118C4.80072 33.8244 5.22464 34 5.66667 34H20.025V22.4H16.1283V17.8583H20.025V14.525C20.025 10.65 22.3917 8.53833 25.8583 8.53833C27.0233 8.535 28.19 8.595 29.35 8.71667V12.75H26.9583C25.0783 12.75 24.7117 13.6467 24.7117 14.9583V17.85H29.2067L28.6233 22.3917H24.71V34H32.3333C32.7754 34 33.1993 33.8244 33.5118 33.5118C33.8244 33.1993 34 32.7754 34 32.3333V5.66667C34 5.22464 33.8244 4.80072 33.5118 4.48816C33.1993 4.17559 32.7754 4 32.3333 4Z" fill="white"/>
</g>
<defs>
<clipPath id="clip0_1941_301">
<rect width="32" height="32" fill="white"/>
</clipPath>
</defs>
</svg>
