<svg width="37" height="37" viewBox="0 0 37 37" fill="none" xmlns="http://www.w3.org/2000/svg">
<path d="M18.4985 11.3728C16.6079 11.3728 14.7947 12.1239 13.4578 13.4607C12.1209 14.7976 11.3699 16.6108 11.3699 18.5015C11.3699 20.3921 12.1209 22.2053 13.4578 23.5422C14.7947 24.8791 16.6079 25.6301 18.4985 25.6301C20.3892 25.6301 22.2024 24.8791 23.5393 23.5422C24.8762 22.2053 25.6272 20.3921 25.6272 18.5015C25.6272 16.6108 24.8762 14.7976 23.5393 13.4607C22.2024 12.1239 20.3892 11.3728 18.4985 11.3728ZM18.4985 23.1311C17.2703 23.1311 16.0923 22.6432 15.2238 21.7747C14.3553 20.9061 13.8674 19.7282 13.8674 18.4999C13.8674 17.2717 14.3553 16.0937 15.2238 15.2252C16.0923 14.3567 17.2703 13.8688 18.4985 13.8688C19.7268 13.8688 20.9048 14.3567 21.7733 15.2252C22.6418 16.0937 23.1297 17.2717 23.1297 18.4999C23.1297 19.7282 22.6418 20.9061 21.7733 21.7747C20.9048 22.6432 19.7268 23.1311 18.4985 23.1311Z" fill="white"/>
<path d="M25.9092 12.7728C26.8271 12.7728 27.5711 12.0287 27.5711 11.1109C27.5711 10.193 26.8271 9.44897 25.9092 9.44897C24.9914 9.44897 24.2473 10.193 24.2473 11.1109C24.2473 12.0287 24.9914 12.7728 25.9092 12.7728Z" fill="white"/>
<path d="M31.6551 9.42123C31.2982 8.49959 30.7528 7.66262 30.0539 6.9639C29.3549 6.26518 28.5177 5.72011 27.5959 5.36356C26.5173 4.95865 25.3777 4.73971 24.2258 4.71606C22.7412 4.65131 22.271 4.63281 18.5063 4.63281C14.7415 4.63281 14.259 4.63281 12.7867 4.71606C11.6356 4.7385 10.4969 4.95749 9.41967 5.36356C8.49766 5.71969 7.66027 6.26462 6.96123 6.96339C6.26219 7.66217 5.71694 8.49935 5.36047 9.42123C4.95548 10.4998 4.73704 11.6394 4.71451 12.7913C4.64822 14.2744 4.62817 14.7446 4.62817 18.5109C4.62817 22.2756 4.62817 22.7551 4.71451 24.2305C4.73763 25.3836 4.95501 26.5214 5.36047 27.6021C5.71794 28.5237 6.26372 29.3605 6.96293 30.0592C7.66214 30.7579 8.4994 31.303 9.42122 31.6598C10.4964 32.0809 11.6356 32.3156 12.7898 32.3535C14.2744 32.4183 14.7446 32.4383 18.5093 32.4383C22.2741 32.4383 22.7566 32.4383 24.2289 32.3535C25.3807 32.3301 26.5202 32.1117 27.599 31.7076C28.5205 31.3502 29.3575 30.8046 30.0564 30.1057C30.7553 29.4068 31.3008 28.5699 31.6582 27.6484C32.0637 26.5692 32.281 25.4314 32.3042 24.2783C32.3705 22.7952 32.3905 22.325 32.3905 18.5587C32.3905 14.7924 32.3905 14.3145 32.3042 12.8391C32.2862 11.6709 32.0667 10.5147 31.6551 9.42123ZM29.7774 24.1164C29.7674 25.0049 29.6053 25.8851 29.2979 26.7187C29.0664 27.3182 28.712 27.8626 28.2574 28.3169C27.8029 28.7712 27.2582 29.1254 26.6586 29.3565C25.8341 29.6625 24.9633 29.8246 24.084 29.836C22.6194 29.9038 22.2063 29.9208 18.4508 29.9208C14.6922 29.9208 14.3083 29.9208 12.816 29.836C11.9371 29.8252 11.0667 29.663 10.2429 29.3565C9.64119 29.1268 9.09439 28.7733 8.63788 28.3189C8.18137 27.8645 7.82534 27.3194 7.5928 26.7187C7.28978 25.894 7.1277 25.0242 7.11334 24.1457C7.04705 22.6811 7.03163 22.2679 7.03163 18.5124C7.03163 14.7554 7.03163 14.3715 7.11334 12.8776C7.12331 11.9897 7.28548 11.11 7.5928 10.2769C8.06301 9.06048 9.02655 8.1031 10.2429 7.63752C11.0671 7.33249 11.9373 7.17034 12.816 7.15806C14.2821 7.09177 14.6937 7.07327 18.4508 7.07327C22.2078 7.07327 22.5932 7.07327 24.084 7.15806C24.9634 7.16864 25.8344 7.33084 26.6586 7.63752C27.2582 7.86919 27.8027 8.22367 28.2573 8.67819C28.7118 9.13272 29.0663 9.67726 29.2979 10.2769C29.6009 11.1016 29.763 11.9714 29.7774 12.8499C29.8437 14.316 29.8606 14.7276 29.8606 18.4847C29.8606 22.2402 29.8606 22.6441 29.7943 24.1179H29.7774V24.1164Z" fill="white"/>
</svg>
