<svg width="42" height="42" viewBox="0 0 42 42" fill="none" xmlns="http://www.w3.org/2000/svg">
<rect width="42" height="42" fill="white"/>
<path d="M35.7665 7.46094H6.23608C5.20044 7.46212 4.20756 7.87404 3.47525 8.60635C2.74294 9.33866 2.33101 10.3315 2.32983 11.3672V30.6328C2.33101 31.6684 2.74294 32.6613 3.47525 33.3936C4.20756 34.126 5.20044 34.5379 6.23608 34.5391H35.7664C36.802 34.5379 37.7949 34.126 38.5272 33.3936C39.2595 32.6613 39.6715 31.6684 39.6726 30.6328V11.3672C39.6715 10.3315 39.2596 9.33865 38.5273 8.60634C37.795 7.87402 36.8021 7.4621 35.7665 7.46094ZM28.8212 20.9947L38.1102 13.7042V30.0119L28.8212 20.9947ZM6.23608 9.02344H35.7664C36.3878 9.02414 36.9835 9.2713 37.4229 9.71068C37.8623 10.1501 38.1094 10.7458 38.1101 11.3672V11.718L23.0781 23.5162C22.5285 23.9453 21.8511 24.1781 21.1539 24.1775C20.4567 24.177 19.7797 23.9431 19.2308 23.5131L3.89233 11.715V11.3672C3.89304 10.7458 4.14019 10.1501 4.57958 9.71068C5.01897 9.2713 5.6147 9.02414 6.23608 9.02344ZM13.4578 21.0437L3.89233 30.0434V13.6862L13.4578 21.0437ZM35.7665 32.9766H6.23608C5.83596 32.9763 5.44255 32.8737 5.09332 32.6784C4.74408 32.4831 4.45064 32.2017 4.24093 31.8609L14.7123 22.0094L18.2734 24.7484C19.097 25.3917 20.1121 25.7411 21.1571 25.7408C22.2022 25.7405 23.2171 25.3907 24.0403 24.747L27.5808 21.9687L37.7656 31.8547C37.5563 32.1972 37.2625 32.4802 36.9125 32.6766C36.5625 32.873 36.1679 32.9763 35.7665 32.9766Z" fill="black"/>
</svg>
