<svg width="37" height="32" viewBox="0 0 37 32" fill="none" xmlns="http://www.w3.org/2000/svg">
<path d="M33.2892 9.60409C33.1136 9.04063 32.7705 8.52676 32.2939 8.11365C31.8173 7.70053 31.2239 7.40257 30.5728 7.24942C28.1586 6.67609 18.5 6.66676 18.5 6.66676C18.5 6.66676 8.84302 6.65742 6.42723 7.20542C5.77653 7.36562 5.18437 7.66779 4.7076 8.08294C4.23083 8.49808 3.88546 9.01225 3.70465 9.57609C3.06794 11.6641 3.06177 15.9948 3.06177 15.9948C3.06177 15.9948 3.0556 20.3468 3.68769 22.4134C4.04227 23.5561 5.0829 24.4588 6.40565 24.7668C8.84456 25.3401 18.4769 25.3494 18.4769 25.3494C18.4769 25.3494 28.1354 25.3588 30.5497 24.8121C31.201 24.6592 31.795 24.3619 32.2727 23.9497C32.7505 23.5374 33.0956 23.0244 33.2738 22.4614C33.9121 20.3748 33.9167 16.0454 33.9167 16.0454C33.9167 16.0454 33.9475 11.6921 33.2892 9.60409ZM15.4105 20.0068L15.4182 12.0068L23.4457 16.0134L15.4105 20.0068Z" fill="white"/>
</svg>
