<svg width="37" height="37" viewBox="0 0 37 37" fill="none" xmlns="http://www.w3.org/2000/svg">
<path d="M18.4984 11.3728C16.6078 11.3728 14.7946 12.1239 13.4577 13.4607C12.1208 14.7976 11.3698 16.6108 11.3698 18.5015C11.3698 20.3921 12.1208 22.2053 13.4577 23.5422C14.7946 24.8791 16.6078 25.6301 18.4984 25.6301C20.3891 25.6301 22.2023 24.8791 23.5392 23.5422C24.8761 22.2053 25.6271 20.3921 25.6271 18.5015C25.6271 16.6108 24.8761 14.7976 23.5392 13.4607C22.2023 12.1239 20.3891 11.3728 18.4984 11.3728ZM18.4984 23.1311C17.2702 23.1311 16.0922 22.6432 15.2237 21.7747C14.3552 20.9061 13.8673 19.7282 13.8673 18.4999C13.8673 17.2717 14.3552 16.0937 15.2237 15.2252C16.0922 14.3567 17.2702 13.8688 18.4984 13.8688C19.7267 13.8688 20.9047 14.3567 21.7732 15.2252C22.6417 16.0937 23.1296 17.2717 23.1296 18.4999C23.1296 19.7282 22.6417 20.9061 21.7732 21.7747C20.9047 22.6432 19.7267 23.1311 18.4984 23.1311Z" fill="white"/>
<path d="M25.9093 12.7728C26.8271 12.7728 27.5712 12.0287 27.5712 11.1109C27.5712 10.193 26.8271 9.44897 25.9093 9.44897C24.9914 9.44897 24.2473 10.193 24.2473 11.1109C24.2473 12.0287 24.9914 12.7728 25.9093 12.7728Z" fill="white"/>
<path d="M31.655 9.42123C31.2981 8.49959 30.7528 7.66262 30.0538 6.9639C29.3548 6.26518 28.5176 5.72011 27.5958 5.36356C26.5172 4.95865 25.3776 4.73971 24.2257 4.71606C22.7411 4.65131 22.2709 4.63281 18.5062 4.63281C14.7414 4.63281 14.2589 4.63281 12.7866 4.71606C11.6356 4.7385 10.4968 4.95749 9.41958 5.36356C8.49757 5.71969 7.66018 6.26462 6.96114 6.96339C6.2621 7.66217 5.71685 8.49935 5.36037 9.42123C4.95539 10.4998 4.73695 11.6394 4.71442 12.7913C4.64812 14.2744 4.62808 14.7446 4.62808 18.5109C4.62808 22.2756 4.62808 22.7551 4.71442 24.2305C4.73754 25.3836 4.95492 26.5214 5.36037 27.6021C5.71785 28.5237 6.26363 29.3605 6.96284 30.0592C7.66205 30.7579 8.49931 31.303 9.42112 31.6598C10.4963 32.0809 11.6355 32.3156 12.7897 32.3535C14.2743 32.4183 14.7445 32.4383 18.5092 32.4383C22.274 32.4383 22.7565 32.4383 24.2288 32.3535C25.3806 32.3301 26.5201 32.1117 27.5989 31.7076C28.5205 31.3502 29.3574 30.8046 30.0563 30.1057C30.7552 29.4068 31.3007 28.5699 31.6581 27.6484C32.0636 26.5692 32.281 25.4314 32.3041 24.2783C32.3704 22.7952 32.3904 22.325 32.3904 18.5587C32.3904 14.7924 32.3904 14.3145 32.3041 12.8391C32.2861 11.6709 32.0666 10.5147 31.655 9.42123ZM29.7773 24.1164C29.7674 25.0049 29.6052 25.8851 29.2978 26.7187C29.0663 27.3182 28.7119 27.8626 28.2573 28.3169C27.8028 28.7712 27.2581 29.1254 26.6585 29.3565C25.8341 29.6625 24.9632 29.8246 24.0839 29.836C22.6193 29.9038 22.2062 29.9208 18.4507 29.9208C14.6921 29.9208 14.3082 29.9208 12.8159 29.836C11.937 29.8252 11.0666 29.663 10.2428 29.3565C9.6411 29.1268 9.09429 28.7733 8.63779 28.3189C8.18128 27.8645 7.82525 27.3194 7.59271 26.7187C7.28969 25.894 7.1276 25.0242 7.11325 24.1457C7.04696 22.6811 7.03154 22.2679 7.03154 18.5124C7.03154 14.7554 7.03154 14.3715 7.11325 12.8776C7.12321 11.9897 7.28538 11.11 7.59271 10.2769C8.06292 9.06048 9.02646 8.1031 10.2428 7.63752C11.067 7.33249 11.9372 7.17034 12.8159 7.15806C14.282 7.09177 14.6936 7.07327 18.4507 7.07327C22.2077 7.07327 22.5931 7.07327 24.0839 7.15806C24.9633 7.16864 25.8343 7.33084 26.6585 7.63752C27.2581 7.86919 27.8026 8.22367 28.2572 8.67819C28.7117 9.13272 29.0662 9.67726 29.2978 10.2769C29.6009 11.1016 29.7629 11.9714 29.7773 12.8499C29.8436 14.316 29.8605 14.7276 29.8605 18.4847C29.8605 22.2402 29.8605 22.6441 29.7942 24.1179H29.7773V24.1164Z" fill="white"/>
</svg>
