<svg width="39" height="39" viewBox="0 0 39 39" fill="none" xmlns="http://www.w3.org/2000/svg">
<rect width="39" height="39" rx="19.5" fill="white"/>
<path d="M14.7021 20.4517C14.7021 21.1047 14.7077 21.6414 14.7188 22.062C14.7243 22.1948 14.7962 22.2806 14.9346 22.3193L16.0801 22.668L16.0967 23.0249C15.2943 23.0083 14.5638 23 13.9053 23C13.2467 23 12.5605 23.0083 11.8467 23.0249L11.8135 22.668L12.8345 22.3608C12.9784 22.3166 13.0531 22.2308 13.0586 22.1035C13.0697 21.6553 13.0752 21.1047 13.0752 20.4517V13.7197C13.0752 13.4375 13.0724 13.1829 13.0669 12.9561C13.0669 12.7292 13.0641 12.5244 13.0586 12.3418C13.0531 12.1979 12.9867 12.1038 12.8594 12.0596L11.8301 11.7358L11.8135 11.3789C12.5273 11.401 13.2135 11.4121 13.8721 11.4121H15.8892C17.1287 11.4121 18.4375 11.401 19.8154 11.3789L19.8652 11.4453L19.3838 14.0103L19.0518 14.0684L18.5371 12.1509H14.7021V16.8906H15.499C16.0745 16.8906 16.7165 16.8851 17.4248 16.874C17.5742 16.8685 17.6683 16.7965 17.707 16.6582L18.0474 15.5376L18.4458 15.521C18.4292 16.2957 18.4209 16.8685 18.4209 17.2393C18.4209 17.599 18.4292 18.1634 18.4458 18.9326L18.0474 18.9658L17.6987 17.8286C17.6545 17.6847 17.5715 17.61 17.4497 17.6045C16.7248 17.5934 16.0718 17.5879 15.4907 17.5879H14.7021V20.4517Z" fill="black"/>
<path d="M27.7783 21.2759L27.4463 21.3257L26.8403 19.1426C26.1541 18.971 25.5316 18.8853 24.9727 18.8853C23.6169 18.8853 22.5516 19.3584 21.7769 20.3047C21.0021 21.251 20.6147 22.4795 20.6147 23.9902C20.6147 25.6061 21.0575 26.8955 21.9429 27.8584C22.8283 28.8213 24.054 29.3027 25.6201 29.3027C26.5 29.3027 27.4269 29.134 28.4009 28.7964L28.4922 29.1699C27.402 29.9225 26.168 30.2988 24.79 30.2988C23.0026 30.2988 21.561 29.7537 20.4653 28.6636C19.3696 27.5734 18.8218 26.1374 18.8218 24.3555C18.8218 22.4574 19.425 20.9549 20.6313 19.8481C21.8377 18.7414 23.4149 18.188 25.3628 18.188C26.298 18.188 27.2554 18.3014 28.2349 18.5283L28.293 18.5947L27.7783 21.2759Z" fill="black"/>
</svg>
